<?xml version="1.0" standalone="no"?>
<!DOCTYPE svg PUBLIC "-//W3C//DTD SVG 20010904//EN"
 "http://www.w3.org/TR/2001/REC-SVG-20010904/DTD/svg10.dtd">
<svg version="1.0" xmlns="http://www.w3.org/2000/svg"
 width="103.000000pt" height="103.000000pt" viewBox="0 0 103.000000 103.000000"
 preserveAspectRatio="xMidYMid meet">
<metadata>
Created by potrace 1.14, written by Peter Selinger 2001-2017
</metadata>
<g transform="translate(0.000000,103.000000) scale(0.100000,-0.100000)"
fill="#000000" stroke="none">
<path d="M719 1019 c-7 -4 -17 -5 -22 -2 -14 9 -75 -40 -96 -78 -26 -46 -27
-80 -2 -108 25 -29 82 -39 100 -17 11 13 11 19 1 31 -7 8 -8 15 -3 15 6 0 15
10 21 23 9 19 11 15 11 -28 1 -54 -27 -124 -79 -202 -17 -24 -30 -49 -30 -55
0 -6 -6 -7 -17 -2 -10 5 -45 9 -79 9 -134 -1 -280 -119 -308 -250 -4 -18 6 -6
24 32 49 100 154 172 265 180 51 4 64 2 87 -17 77 -60 -14 -211 -172 -284 -30
-14 -62 -26 -70 -26 -8 0 -22 -5 -30 -11 -11 -8 4 -9 56 -6 56 3 84 11 134 38
66 35 128 99 146 152 l12 32 27 -60 c15 -33 36 -80 47 -105 27 -58 33 -111 18
-140 -10 -18 -10 -21 2 -15 7 4 -4 -9 -26 -30 -41 -40 -91 -65 -129 -65 -13 0
-45 14 -73 31 -27 18 -67 43 -89 56 l-40 24 30 -26 c17 -14 57 -43 89 -65 79
-53 121 -54 193 -4 47 33 105 97 72 79 -8 -3 -5 1 5 9 11 9 16 16 12 16 -5 0
-2 7 5 17 10 11 14 44 13 112 -1 53 -2 130 -2 173 0 42 -6 85 -13 95 -9 15 -8
26 5 52 12 23 14 36 7 45 -6 7 -8 23 -5 37 l5 24 -11 -24 c-6 -13 -8 -32 -4
-43 3 -10 1 -25 -5 -32 -6 -8 -9 -53 -6 -122 3 -60 5 -133 4 -162 0 -39 3 -52
12 -47 8 6 9 3 1 -10 -13 -23 -43 -30 -35 -7 4 10 2 13 -5 8 -6 -4 -10 1 -9
12 2 29 -44 133 -56 125 -6 -3 -7 -1 -3 6 4 7 -3 33 -15 59 -13 26 -23 49 -24
52 -1 3 -5 17 -9 32 -6 22 -1 38 23 78 17 28 29 55 26 61 -4 5 -1 8 5 7 6 -2
22 17 36 42 41 77 25 170 -30 170 -31 0 -57 -30 -49 -58 4 -17 1 -22 -15 -22
-27 0 -34 34 -15 81 18 45 65 89 96 89 12 0 28 4 35 9 10 6 7 10 -11 13 -14 3
-31 1 -38 -3z m38 -191 c-3 -8 -6 -5 -6 6 -1 11 2 17 5 13 3 -3 4 -12 1 -19z
m50 -400 c-3 -8 -6 -5 -6 6 -1 11 2 17 5 13 3 -3 4 -12 1 -19z m6 -203 c-3 -9
-8 -14 -10 -11 -3 3 -2 9 2 15 9 16 15 13 8 -4z"/>
<path d="M790 1005 c0 -11 27 -34 33 -29 3 3 10 -11 17 -31 7 -20 14 -35 16
-32 10 9 -20 67 -42 82 -13 8 -24 13 -24 10z"/>
<path d="M840 871 c0 -20 2 -21 15 -11 8 7 15 18 14 24 0 6 -3 5 -6 -3 -5 -11
-7 -11 -14 0 -6 10 -9 7 -9 -10z"/>
<path d="M836 793 c-6 -14 -5 -15 5 -6 7 7 10 15 7 18 -3 3 -9 -2 -12 -12z"/>
<path d="M820 751 c0 -6 4 -13 10 -16 6 -3 7 1 4 9 -7 18 -14 21 -14 7z"/>
<path d="M690 556 c0 -27 28 -43 36 -21 9 21 -3 45 -21 45 -9 0 -15 -9 -15
-24z m25 5 c3 -5 2 -12 -3 -15 -5 -3 -9 1 -9 9 0 17 3 19 12 6z"/>
<path d="M810 565 c0 -8 5 -15 10 -15 6 0 10 7 10 15 0 8 -4 15 -10 15 -5 0
-10 -7 -10 -15z"/>
<path d="M730 471 c0 -24 11 -32 28 -22 16 10 5 41 -14 41 -8 0 -14 -9 -14
-19z"/>
<path d="M227 303 c-85 -45 -117 -88 -117 -155 0 -59 24 -88 73 -88 50 0 68
27 77 112 7 77 19 108 53 146 20 21 20 22 1 22 -10 0 -50 -17 -87 -37z m-72
-148 c0 -55 -7 -70 -19 -39 -9 23 -7 53 4 75 6 10 12 19 13 19 1 0 2 -25 2
-55z"/>
</g>
</svg>
